<svg width="108" height="108" viewBox="0 0 108 108" fill="none" xmlns="http://www.w3.org/2000/svg">
<rect width="108" height="108" rx="40" fill="#982C29"/>
<path d="M27 61.6894V39.9997C27 36.0216 28.5803 32.2063 31.3933 29.3933C34.2063 26.5803 38.0216 25 41.9997 25H66.9993C70.9775 25 74.7927 26.5803 77.6057 29.3933C80.4187 32.2063 81.999 36.0216 81.999 39.9997V61.6894C81.9991 64.8373 81.0088 67.9055 79.1683 70.4594C77.3278 73.0132 74.7305 74.9233 71.7442 75.9191L66.9993 77.4991V79.999C66.9993 81.3251 66.4725 82.5969 65.5349 83.5345C64.5972 84.4722 63.3254 84.999 61.9994 84.999H46.9997C45.6736 84.999 44.4018 84.4722 43.4642 83.5345C42.5265 82.5969 41.9997 81.3251 41.9997 79.999V77.4991L37.2548 75.9191C34.2685 74.9233 31.6712 73.0132 29.8307 70.4594C27.9903 67.9055 26.9999 64.8373 27 61.6894Z" stroke="white" stroke-width="4.99991" stroke-linecap="round" stroke-linejoin="round"/>
<path d="M27 62.6955C30.3349 60.4755 40.4998 57.3656 54.4995 62.6955C68.4993 68.0204 78.6641 63.8054 81.999 61.0305M54.4995 85.0001V90M60.0894 45.8058C60.0894 42.6558 54.4995 34.8559 54.4995 34.8559C54.4995 34.8559 48.8996 42.6608 48.8996 45.8108C48.8996 47.3607 49.4896 48.8407 50.5396 49.9357C51.5896 51.0257 53.0095 51.6407 54.4895 51.6407C55.2304 51.6378 55.963 51.4853 56.6435 51.1924C57.324 50.8994 57.9383 50.4719 58.4495 49.9357C59.5059 48.823 60.0917 47.3451 60.0844 45.8108L60.0894 45.8058Z" stroke="white" stroke-width="4.99991" stroke-linecap="round" stroke-linejoin="round"/>
</svg>
